<?xml version="1.0" encoding="UTF-8"?>
<svg width="34px" height="25px" viewBox="0 0 34 25" version="1.1" xmlns="http://www.w3.org/2000/svg" xmlns:xlink="http://www.w3.org/1999/xlink">
    <title>reagendar</title>
    <g id="Page-1" stroke="none" stroke-width="1" fill="none" fill-rule="evenodd">
        <g id="reagendar" fill="#FFFFFF" fill-rule="nonzero">
            <g id="Grupo_508" transform="translate(14.241000, 4.444000)">
                <path d="M17.559,0.928 C16.3218452,-0.309028587 14.3161548,-0.309028587 13.079,0.928 L1.514,12.494 C1.44403551,12.5637116 1.39367791,12.6506303 1.368,12.746 L0.019,17.779 C-0.0333967723,17.9731894 0.0219779623,18.1805754 0.164201294,18.3227987 C0.306424626,18.465022 0.513810581,18.5203968 0.708,18.468 L5.741,17.119 C5.83636975,17.0933221 5.92328835,17.0429645 5.993,16.973 L17.559,5.408 C18.7960286,4.17084519 18.7960286,2.16515481 17.559,0.928 Z M12.707,2.891 L13.754,3.938 L3.754,13.938 L2.706,12.892 L12.707,2.891 Z M1.357,17.13 L2.199,13.978 L4.506,16.285 L1.357,17.13 Z M5.599,15.781 L4.548,14.734 L14.548,4.734 L15.599,5.781 L5.599,15.781 Z M16.764,4.612 L16.391,4.985 L13.499,2.1 L13.872,1.727 C14.3882488,1.21075122 15.1406978,1.00913312 15.8459067,1.19809329 C16.5511157,1.38705346 17.1019465,1.93788435 17.2909067,2.64309329 C17.4798669,3.34830224 17.2782488,4.10075122 16.762,4.617 L16.764,4.612 Z" id="Trazado_290"></path>
            </g>
            <path d="M20.678,24.8 L2.749,24.8 C1.18848895,24.7542459 -0.0408987282,23.4546458 4.33867352e-14,21.894 L4.33867352e-14,4.844 C-0.0375369759,3.28566935 1.19088934,1.98976673 2.749,1.944 L3.849,1.944 L3.849,0 L5.676,0 L5.676,1.939 L17.749,1.939 L17.749,0 L19.582,0 L19.582,1.939 L20.682,1.939 C22.2386218,1.98637862 23.464678,3.28213771 23.426,4.839 L23.426,10.355 L21.594,11.38 L21.594,9.107 L1.833,9.107 L1.833,21.894 C1.82012075,22.4133437 2.22970505,22.8452852 2.749,22.86 L20.678,22.86 C21.217,22.86 21.594,22.383 21.594,21.7 L21.594,19.852 L21.594,19.852 L21.594,19.852 L21.594,19.852 L21.594,11.379 L21.594,11.52 L21.594,19.847 L21.594,19.847 L23.422,17.647 L23.422,21.888 C23.4674136,23.4494895 22.2394321,24.7526535 20.678,24.8 Z M2.749,3.874 C2.22898969,3.88979139 1.81954758,4.32292393 1.833,4.843 L1.833,7.168 L21.594,7.168 L21.594,4.844 C21.6074524,4.32392393 21.1980103,3.89079139 20.678,3.875 L19.578,3.875 L19.578,5.813 L17.749,5.813 L17.749,3.874 L5.676,3.874 L5.676,5.813 L3.845,5.813 L3.845,3.874 L2.749,3.874 Z" id="Exclusión_1"></path>
        </g>
    </g>
</svg>