<svg width="16" height="16" viewBox="0 0 16 16" fill="none" xmlns="http://www.w3.org/2000/svg">
<path fill-rule="evenodd" clip-rule="evenodd" d="M10.1512 6.38649C10.2997 6.23797 10.2997 5.99718 10.1512 5.84866C10.0027 5.70014 9.76191 5.70014 9.6134 5.84866L7.99995 7.46211L6.38651 5.84867C6.23799 5.70015 5.9972 5.70015 5.84868 5.84867C5.70016 5.99718 5.70016 6.23798 5.84868 6.3865L7.46212 7.99994L5.8486 9.61346C5.70008 9.76197 5.70008 10.0028 5.8486 10.1513C5.99712 10.2998 6.23791 10.2998 6.38643 10.1513L7.99995 8.53776L9.61347 10.1513C9.76199 10.2998 10.0028 10.2998 10.1513 10.1513C10.2998 10.0028 10.2998 9.76198 10.1513 9.61346L8.53778 7.99994L10.1512 6.38649Z" fill="#003b7a"/>
</svg>
