<?xml version="1.0" encoding="UTF-8"?>
<svg width="512px" height="512px" viewBox="0 0 512 512" version="1.1" xmlns="http://www.w3.org/2000/svg" xmlns:xlink="http://www.w3.org/1999/xlink">
    <title>icon/company</title>
    <g id="icon/company" stroke="none" stroke-width="1" fill="none" fill-rule="evenodd">
        <g id="1481478" fill="#666666" fill-rule="nonzero">
            <path d="M392,60 L392,0 L120,0 L120,60 L0,60 L0,512 L512,512 L512,60 L392,60 Z M362,30 L362,482 L332,482 L332,299 L180,299 L180,482 L150,482 L150,30 L362,30 Z M302,359 L210,359 L210,329 L302,329 L302,359 Z M210,389 L241,389 L241,482 L210,482 L210,389 Z M271,389 L302,389 L302,482 L271,482 L271,389 Z M30,90 L120,90 L120,482 L30,482 L30,90 Z M482,482 L392,482 L392,90 L482,90 L482,482 Z" id="Shape"></path>
            <path d="M332,60 L180,60 L180,149 L332,149 L332,60 Z M302,119 L210,119 L210,90 L302,90 L302,119 Z" id="Shape"></path>
            <path d="M332,180 L180,180 L180,269 L332,269 L332,180 Z M302,239 L210,239 L210,210 L302,210 L302,239 Z" id="Shape"></path>
        </g>
    </g>
</svg>