<?xml version="1.0" encoding="UTF-8"?>
<svg width="26px" height="27px" viewBox="0 0 26 27" version="1.1" xmlns="http://www.w3.org/2000/svg" xmlns:xlink="http://www.w3.org/1999/xlink">
    <title>videollamada</title>
    <g id="Page-1" stroke="none" stroke-width="1" fill="none" fill-rule="evenodd">
        <g id="videollamada" fill="#FFFFFF" fill-rule="nonzero">
            <g id="Grupo_498">
                <path d="M12.667,26.3340001 C7.35811478,26.3346764 2.61204055,23.0247453 0.778148171,18.0426672 C-1.05574421,13.0605892 0.41166962,7.46348629 4.454,4.022 C4.67193201,3.83622185 4.97242095,3.78082112 5.24227554,3.87666672 C5.51213013,3.97251232 5.71035303,4.20504302 5.76227557,4.48666676 C5.81419812,4.76829049 5.71193205,5.0562219 5.494,5.242 C1.14361271,8.96234256 0.367122049,15.3945306 3.70719871,20.0432622 C7.04727536,24.6919939 13.3910285,26.0083435 18.3049614,23.0723459 C23.2188943,20.1363483 25.0657178,13.9262579 22.5547315,8.78215775 C20.0437451,3.63805765 14.0115924,1.27392702 8.674,3.342 C8.40605081,3.44542839 8.10327716,3.39805097 7.87973095,3.21771435 C7.65618474,3.03737774 7.54582796,2.75147936 7.59023095,2.46771435 C7.63463393,2.18394935 7.82705081,1.94542839 8.095,1.842 C12.8396452,0.00802184263 18.2211336,1.18992554 21.760625,4.84329845 C25.3001165,8.49667137 26.3110651,13.9128782 24.3278041,18.5970867 C22.3445431,23.2812952 17.7517605,26.3249216 12.665,26.326 L12.667,26.3340001 Z" id="Trazado_283"></path>
            </g>
            <g id="Grupo_501" transform="translate(4.981000, 9.164000)">
                <path d="M10.235,9.498 L1.99,9.498 C0.891410321,9.49689755 0.00110244908,8.60658968 5.68434189e-14,7.508 L5.68434189e-14,1.989 C0.00110244908,0.890410321 0.891410321,0.00010244908 1.99,-0.001 L10.235,-0.001 C11.2470594,0.000597042314 12.0972367,0.760467231 12.212,1.766 L14.263,0.582 C14.6954433,0.333747876 15.2272884,0.33424124 15.6592704,0.583295243 C16.0912524,0.832349247 16.3581632,1.2923689 16.36,1.791 L16.36,7.707 C16.3575575,8.204707 16.0910588,8.6636972 15.6600292,8.9125581 C15.2289997,9.161419 14.6982532,9.16272943 14.266,8.916 L12.215,7.732 C12.0996361,8.73827308 11.2478644,9.498 10.235,9.498 Z M1.99,1.603 C1.77665572,1.60299929 1.60355128,1.77565643 1.603,1.989 L1.603,7.508 C1.603,7.7217342 1.7762658,7.895 1.99,7.895 L10.235,7.895 C10.4483436,7.89444872 10.6210007,7.72134428 10.621,7.508 L10.621,6.761 C10.6256653,6.39167729 10.824579,6.05213611 11.1444553,5.86747373 C11.4643316,5.68281135 11.85784,5.68035132 12.18,5.861 L14.753,7.347 L14.753,2.147 L12.18,3.633 C11.85784,3.81364868 11.4643316,3.81118865 11.1444553,3.62652627 C10.824579,3.44186389 10.6256653,3.10232271 10.621,2.733 L10.621,1.986 C10.6204504,1.77304614 10.4479539,1.60054956 10.235,1.6 L1.99,1.603 Z" id="Trazado_286"></path>
            </g>
            <path d="M3.773,4.649 C4.98858381,3.43542881 6.4486165,2.49457188 8.056,1.889 C10.439,1.103 9.493,3.008 9.493,3.008 C9.493,3.008 8.238,3.235 5.145,5.525 C2.052,7.815 3.773,4.649 3.773,4.649 Z" id="Trazado_289"></path>
        </g>
    </g>
</svg>