<?xml version="1.0" encoding="UTF-8"?>
<svg width="26px" height="26px" viewBox="0 0 26 26" version="1.1" xmlns="http://www.w3.org/2000/svg" xmlns:xlink="http://www.w3.org/1999/xlink">
    <title>Trazado 333</title>
    <g id="360" stroke="none" stroke-width="1" fill="none" fill-rule="evenodd">
        <g id="3.3.1-copy-2" transform="translate(-647.000000, -217.000000)" fill="#FFF">
            <g id="Trazado-333" transform="translate(647.000000, 217.000000)">
                <path d="M13,0 C20.1764018,0.00796051961 25.9920395,5.82359819 26,13 C26,20.1797017 20.1797017,26 13,26 C5.82029825,26 0,20.1797017 0,13 C0,5.82029825 5.82029825,0 13,0 Z M13,1.70877778 C6.76403016,1.70877778 1.70877778,6.76403016 1.70877778,13 C1.70877778,19.2359698 6.76403016,24.2912222 13,24.2912222 C19.2334944,24.2852501 24.2852501,19.2334944 24.2912222,13 C24.2912222,6.76403016 19.2359698,1.70877778 13,1.70877778 Z" id="Shape"></path>
                <path d="M17.7045556,8.73888889 L11.0066667,15.4389444 L8.29544444,12.74 C8.08471845,12.5094154 7.76442768,12.4131107 7.4614781,12.4892439 C7.15852852,12.5653771 6.92181905,12.8016595 6.84513898,13.1044711 C6.76845891,13.4072828 6.86418513,13.7277469 7.09438889,13.9388889 L10.4,17.2611111 C10.5617474,17.4202968 10.779726,17.5093047 11.0066667,17.5088352 C11.2331422,17.5069545 11.4502731,17.4182928 11.6133333,17.2611111 L11.6133333,17.2611111 L18.9178889,9.95438889 C19.2471906,9.6183664 19.2444706,9.07983193 18.9117916,8.74715286 C18.5791125,8.4144738 18.040578,8.41175386 17.7045556,8.74105556 L17.7045556,8.73888889 Z" id="Trazado_333-path"></path>
            </g>
        </g>
    </g>
</svg>