<?xml version="1.0" encoding="UTF-8"?>
<svg width="128px" height="128px" viewBox="0 0 128 128" version="1.1" xmlns="http://www.w3.org/2000/svg" xmlns:xlink="http://www.w3.org/1999/xlink">
    <title>Calendar</title>
    <g id="Page-1" stroke="none" stroke-width="1" fill="none" fill-rule="evenodd">
        <g id="Calendar">
            <rect id="Rectangle" fill-opacity="0" fill="#D8D8D8" x="0" y="0" width="128" height="128"></rect>
            <g transform="translate(19.000000, 19.000000)" fill="#003b7a" fill-rule="nonzero" id="Shape">
                <path d="M78.5174257,7.03125 L74.3611757,7.03125 L74.3611757,0 L67.4340922,0 L67.4340922,7.03125 L21.7153423,7.03125 L21.7153423,0 L14.788259,0 L14.788259,7.03125 L10.632009,7.03125 C4.90261837,7.03125 0.241384,11.7625781 0.241384,17.578125 L0.241384,79.453125 C0.241384,85.268672 4.90261837,90 10.632009,90 L78.5174257,90 C84.2468162,90 88.9080507,85.268672 88.9080507,79.453125 L88.9080507,17.578125 C88.9080507,11.7625781 84.2468162,7.03125 78.5174257,7.03125 Z M81.9809672,79.453125 C81.9809672,81.3916405 80.4272227,82.96875 78.5174257,82.96875 L10.632009,82.96875 C8.72221214,82.96875 7.16846734,81.3916405 7.16846734,79.453125 L7.16846734,33.046875 L81.9809672,33.046875 L81.9809672,79.453125 Z M81.9809672,26.015625 L7.16846734,26.015625 L7.16846734,17.578125 C7.16846734,15.6396094 8.72221214,14.0625 10.632009,14.0625 L14.788259,14.0625 L14.788259,21.09375 L21.7153423,21.09375 L21.7153423,14.0625 L67.4340922,14.0625 L67.4340922,21.09375 L74.3611757,21.09375 L74.3611757,14.0625 L78.5174257,14.0625 C80.4272227,14.0625 81.9809672,15.6396094 81.9809672,17.578125 L81.9809672,26.015625 Z" transform="translate(44.574717, 45.000000) scale(-1, 1) translate(-44.574717, -45.000000) "></path>
            </g>
        </g>
    </g>
</svg>