<?xml version="1.0" encoding="UTF-8"?>
<svg width="512px" height="512px" viewBox="0 0 512 512" version="1.1" xmlns="http://www.w3.org/2000/svg" xmlns:xlink="http://www.w3.org/1999/xlink">
    <title>icon/person</title>
    <g id="icon/person" stroke="none" stroke-width="1" fill="none" fill-rule="evenodd">
        <g id="Group" transform="translate(37.000000, 0.000000)" fill="#666666" fill-rule="nonzero">
            <path d="M218.243809,0 C181.060672,0 145.629592,16.0947357 121.039275,44.1644667 C118.633853,46.9110025 117.569337,50.3715184 117.792258,53.7472251 C118.01515,57.1224967 119.525226,60.4130455 122.269877,62.819351 C125.018779,65.226956 128.479339,66.2911549 131.854598,66.0682634 C135.23052,65.8453281 138.521304,64.3346026 140.927175,61.589442 C160.492147,39.2550836 188.671255,26.4415485 218.243809,26.4415485 C246.581406,26.4415485 272.275802,37.9710616 290.886726,56.5821529 C309.4976,75.1931945 321.02703,100.887766 321.02703,129.225747 L321.02721,131.221584 C321.025779,135.981651 321.005157,139.771181 320.988619,142.810909 C320.908592,157.520195 321.652442,158.083294 323.59273,160.661633 C326.665772,164.81474 327.137934,169.494284 325.541237,173.617031 C323.725832,178.304495 319.452157,182.184581 313.805611,184.131301 C309.618688,185.574559 306.082411,188.217682 303.525374,191.628465 C300.991451,195.008418 299.41863,199.145279 299.146662,203.613794 C297.381678,232.583407 281.209238,257.862272 255.845612,271.207184 C253.673218,272.350224 251.907169,274.047937 250.68416,276.073469 C249.461079,278.099121 248.781113,280.452643 248.781113,282.907081 L248.781113,294.779375 C248.781113,299.1667 250.955314,303.268236 254.611202,305.740854 C262.078958,310.738963 266.576215,313.813511 269.391465,315.738157 C275.034343,319.59591 275.438469,319.657572 276.954015,320.104309 C276.960642,320.106284 277.551352,320.280468 278.678777,320.612888 C287.977939,323.354737 362.016707,336.339512 366.87108,337.791203 C374.308234,340.639825 379.301023,344.803351 382.652188,349.313338 C388.08873,356.629819 389.309593,364.742363 390.06644,369.59778 C390.363465,371.5 390.682541,372.984201 390.999131,373.983351 C391.679372,376.926882 393.303273,379.422694 395.483799,381.213882 C397.803185,383.119137 400.754544,384.222386 403.871292,384.222386 C408.049538,384.222386 411.693645,382.314593 414.09414,379.391556 C416.503301,376.457967 417.658302,372.500429 416.84456,368.417599 C416.751077,367.948563 416.642376,367.48741 416.298634,366.562405 C416.265613,366.165995 416.224158,365.685049 416.136887,365.145551 C415.072683,358.566772 412.781701,345.030189 403.296527,332.684222 C397.382456,324.986428 388.702423,317.712274 375.721031,312.86752 C375.383582,312.743316 345.017868,312.604255 286.406425,295.3242 L277.335157,289.188884 C304.853052,271.084622 322.453158,241.561308 325.332139,208.024675 C337.248662,203.058829 345.888253,193.978603 350.062949,183.474092 C354.384836,172.599214 353.990534,160.160666 347.463477,148.913595 C347.47241,144.518019 347.469553,137.343819 347.467676,132.659642 L347.466846,130.428711 C347.466708,129.968272 347.466624,129.562983 347.466624,129.223793 C347.466624,93.5967707 332.976805,61.2893207 309.577275,37.8896055 C286.17782,14.4899653 253.870715,0 218.243809,0 Z" id="Path"></path>
            <path d="M407.974047,391.586076 C404.396451,392.298424 401.444481,394.394795 399.565555,397.207921 C397.686586,400.021112 396.880749,403.551171 397.592853,407.13108 L409.667604,467.772534 C410.46833,471.776174 409.949421,477.729651 406.921527,481.216511 C404.184283,484.369152 399.639063,485.557475 393.863081,485.557475 L116.206571,485.557475 C112.555263,485.557475 109.250503,487.03709 106.858446,489.429147 C104.466388,491.821204 102.986773,495.125964 102.986773,498.777272 C102.986773,502.42858 104.466388,505.73334 106.858446,508.125397 C109.250503,510.517454 112.555263,511.997069 116.206571,511.997069 L393.863081,511.997069 C408.259473,511.997069 419.283992,507.306975 426.886328,498.550683 C436.338069,487.668304 437.555347,472.398625 435.597156,462.599699 L423.524399,401.969207 C422.8114,398.388349 420.714358,395.435187 417.900541,393.556012 C415.086372,391.676603 411.555314,390.871233 407.974047,391.586076 Z" id="Path"></path>
            <path d="M107.750682,69.6362837 C104.633009,70.8199115 101.965657,73.1930916 100.48942,76.4746799 C88.9989105,102.032641 89.0162842,120.80116 89.1816379,144.807532 C89.191037,146.172111 89.2005577,147.554182 89.2078906,148.956124 C83.0282798,159.536799 82.3264619,171.253982 85.950098,181.7096 C89.7525852,192.681274 98.3785767,202.301722 110.608927,207.58712 C110.818099,207.677494 110.983189,207.841757 111.113293,208.024836 C111.276422,208.254386 111.386222,208.527157 111.413088,208.817135 C114.483686,241.937124 132.234561,271.307675 159.494447,289.18364 L150.353754,295.365987 C143.95799,297.253286 136.975196,299.311743 130.115556,301.333895 C110.124207,307.227142 61.1789951,312.824446 60.5332979,313.061984 C48.4511225,317.567857 27.3476892,329.479554 21.5427085,358.552904 L0.819305268,462.645721 C-1.14585629,472.542841 0.0415052052,486.928214 8.90796333,497.728885 C14.08143,504.032008 23.9697259,511.809733 42.3695435,511.809733 L72.0102219,511.809733 C75.6092479,511.809733 78.8666912,510.351309 81.2244983,507.993502 C83.5823054,505.635695 85.0407287,502.378252 85.0407287,498.779226 C85.0407287,495.180009 83.5822231,491.922848 81.224362,489.565302 C78.8666315,487.207885 75.6092673,485.749696 72.0102219,485.749696 L42.3695435,485.749696 C36.4154175,485.749696 31.7681839,484.504842 29.049943,481.194211 C25.967445,477.438957 25.5929101,471.69385 26.3799381,467.730781 L47.1041063,363.651752 C50.3877024,347.20293 62.2579965,340.315947 69.2619505,337.62632 C89.0745054,331.642566 133.21469,327.544697 142.986307,324.712844 C156.233244,320.873829 162.005218,318.952748 163.285936,318.085013 L181.531914,305.745538 C185.117209,303.319425 187.263198,299.276561 187.263198,294.951324 L187.263198,282.773234 C187.263198,280.361431 186.596843,278.047693 185.397706,276.054443 C184.198519,274.061111 182.46656,272.38841 180.336056,271.258452 C155.987204,258.352355 139.932836,234.104866 137.364846,206.411297 C136.899176,201.385512 135.095674,196.697321 132.265174,192.769675 C129.424062,188.827304 125.548446,185.650647 120.947529,183.662597 C115.826004,181.449297 112.038585,177.572189 110.53235,173.031822 C109.198446,169.010927 109.789444,164.537121 112.740226,160.548687 C115.099271,157.360367 115.665844,151.003553 115.349082,141.294607 C114.932463,128.532572 114.278054,109.362119 124.259169,87.1625053 C125.734875,83.881905 125.740989,80.3121813 124.557007,77.1938902 C123.373368,74.0765032 121.000366,71.4102537 117.717845,69.9344654 C114.443036,68.4589329 110.871664,68.4513993 107.750682,69.6362837 Z" id="Path"></path>
        </g>
    </g>
</svg>