<?xml version="1.0" encoding="UTF-8"?>
<svg width="500px" height="500px" viewBox="0 0 500 500" version="1.1" xmlns="http://www.w3.org/2000/svg" xmlns:xlink="http://www.w3.org/1999/xlink">
    <title>Slice</title>
    <g id="Page-1" stroke="none" stroke-width="1" fill="none" fill-rule="evenodd">
        <g id="Group" transform="translate(43.000000, 32.000000)" fill="#003b7a" fill-rule="nonzero">
            <path d="M400,64.5 C408.284271,64.5 415,71.2157288 415,79.5 C415,87.6794071 408.453214,94.3297302 400.313828,94.4967822 L400,94.5 L15,94.5 C6.71572875,94.5 0,87.7842712 0,79.5 C0,71.3205929 6.54678637,64.6702698 14.6861718,64.5032178 L15,64.5 L400,64.5 Z" id="Line"></path>
            <path d="M143,147.5 C151.179407,147.5 157.82973,154.046786 157.996782,162.186172 L158,162.5 L158,338.5 C158,346.784271 151.284271,353.5 143,353.5 C134.820593,353.5 128.17027,346.953214 128.003218,338.813828 L128,338.5 L128,162.5 C128,154.215729 134.715729,147.5 143,147.5 Z" id="Line-2"></path>
            <path d="M208,147.5 C216.179407,147.5 222.82973,154.046786 222.996782,162.186172 L223,162.5 L223,338.5 C223,346.784271 216.284271,353.5 208,353.5 C199.820593,353.5 193.17027,346.953214 193.003218,338.813828 L193,338.5 L193,162.5 C193,154.215729 199.715729,147.5 208,147.5 Z" id="Line-2"></path>
            <path d="M273,147.5 C281.179407,147.5 287.82973,154.046786 287.996782,162.186172 L288,162.5 L288,338.5 C288,346.784271 281.284271,353.5 273,353.5 C264.820593,353.5 258.17027,346.953214 258.003218,338.813828 L258,338.5 L258,162.5 C258,154.215729 264.715729,147.5 273,147.5 Z" id="Line-2-Copy"></path>
            <path d="M241,0 C267.233526,0 288.5,21.2664744 288.5,47.5 L288.5,47.5 L288.5,80 L258.5,80 L258.5,47.5 C258.5,37.9448462 250.84204,30.1783049 241.32877,30.0030264 L241,30 L176,30 C166.335017,30 158.5,37.8350169 158.5,47.5 L158.5,47.5 L158.5,80 L128.5,80 L128.5,47.5 C128.5,21.5288096 149.343272,0.425826193 175.214501,0.00636364289 L176,0 Z" id="Combined-Shape"></path>
            <path d="M374.168,122 L356.379049,352.321528 C352.966672,398.461359 322.504354,437 285.461343,437 L285.461343,437 L131.538657,437 C94.4956458,437 64.0333281,398.461359 60.6246376,352.370296 L60.6246376,352.370296 L42.832,122 L72.92,122 L90.5392407,350.108852 C92.8864314,381.84596 112.148537,406.502608 130.968508,406.992568 L131.538657,407 L285.461343,407 C304.460604,407 324.08986,382.166537 326.464446,350.060084 L326.464446,350.060084 L344.079,122 L374.168,122 Z" id="Combined-Shape"></path>
        </g>
    </g>
</svg>